<svg version="1.1" class="can-badge can-alert has-solid " viewBox="0 0 36 36" preserveAspectRatio="xMidYMid meet" xmlns="http://www.w3.org/2000/svg" xmlns:xlink="http://www.w3.org/1999/xlink" focusable="false" role="img" width="128" height="128" fill="#198FFB"><path d="M19.88,3H6.12A2.12,2.12,0,0,0,4,5.12V33H22V5.12A2.12,2.12,0,0,0,19.88,3ZM20,31H17V28H9v3H6V5.12A.12.12,0,0,1,6.12,5H19.88a.12.12,0,0,1,.12.12Z" class="clr-i-outline--badged clr-i-outline-path-1--badged" style="display:none"/><path d="M31,13.43V31H23v2H33V12.87A7.45,7.45,0,0,1,31,13.43Z" class="clr-i-outline--badged clr-i-outline-path-20--badged" style="display:none"/><path d="M20,31H17V28H9v3H6V5.12A.12.12,0,0,1,6.12,5H19.88a.12.12,0,0,1,.12.12V8.24l2-3.41A2.12,2.12,0,0,0,19.88,3H6.12A2.12,2.12,0,0,0,4,5.12V33H22V15.38a3.68,3.68,0,0,1-2-.74Z" class="clr-i-outline--alerted clr-i-outline-path-17--alerted" style="display:none"/><path d="M26.85,1.14,21.13,11A1.28,1.28,0,0,0,22.23,13H33.68A1.28,1.28,0,0,0,34.78,11L29.06,1.14A1.28,1.28,0,0,0,26.85,1.14Z" class="clr-i-outline--alerted clr-i-outline-path-19--alerted clr-i-alert" style="display:none"/><path d="M31,8H22V33H33V10A2,2,0,0,0,31,8ZM26,25H24V23h2Zm0-5H24V18h2Zm0-5H24V13h2Zm4,10H28V23h2Zm0-5H28V18h2Zm0-5H28V13h2Z" class="clr-i-solid clr-i-solid-path-1" style="display:none"/><path d="M17.88,3H6.12A2.12,2.12,0,0,0,4,5.12V33H9V30h6v3h5V5.12A2.12,2.12,0,0,0,17.88,3ZM9,25H7V23H9Zm0-5H7V18H9Zm0-5H7V13H9Zm0-5H7V8H9Zm4,15H11V23h2Zm0-5H11V18h2Zm0-5H11V13h2Zm0-5H11V8h2Zm4,15H15V23h2Zm0-5H15V18h2Zm0-5H15V13h2Zm0-5H15V8h2Z" class="clr-i-solid clr-i-solid-path-2" style="display:none"/><path d="M17.88,3H6.12A2.12,2.12,0,0,0,4,5.12V33H9V30h6v3h5V14.64a3.67,3.67,0,0,1-1-4.76l1-1.65V5.12A2.12,2.12,0,0,0,17.88,3ZM9,25H7V23H9Zm0-5H7V18H9Zm0-5H7V13H9Zm0-5H7V8H9Zm4,15H11V23h2Zm0-5H11V18h2Zm0-5H11V13h2Zm0-5H11V8h2Zm4,15H15V23h2Zm0-5H15V18h2Zm0-5H15V13h2Zm0-5H15V8h2Z" class="clr-i-solid--alerted clr-i-solid-path-1--alerted" style="display:none"/><path d="M22.23,15.4l-.23,0V33H33V15.4ZM26,25H24V23h2Zm0-5H24V18h2Zm4,5H28V23h2Zm0-5H28V18h2Z" class="clr-i-solid--alerted clr-i-solid-path-2--alerted" style="display:none"/><path d="M26.85,1.14,21.13,11A1.28,1.28,0,0,0,22.23,13H33.68A1.28,1.28,0,0,0,34.78,11L29.06,1.14A1.28,1.28,0,0,0,26.85,1.14Z" class="clr-i-solid--alerted clr-i-solid-path-3--alerted clr-i-alert" style="display:none"/><path d="M17.88,3H6.12A2.12,2.12,0,0,0,4,5.12V33H9V30h6v3h5V5.12A2.12,2.12,0,0,0,17.88,3ZM9,25H7V23H9Zm0-5H7V18H9Zm0-5H7V13H9Zm0-5H7V8H9Zm4,15H11V23h2Zm0-5H11V18h2Zm0-5H11V13h2Zm0-5H11V8h2Zm4,15H15V23h2Zm0-5H15V18h2Zm0-5H15V13h2Zm0-5H15V8h2Z" class="clr-i-solid--badged clr-i-solid-path-1--badged" style="display:none"/><path d="M30,13.5V15H28V13.22A7.5,7.5,0,0,1,22.78,8H22V33H33V12.87A7.47,7.47,0,0,1,30,13.5ZM26,25H24V23h2Zm0-5H24V18h2Zm0-5H24V13h2Zm4,10H28V23h2Zm0-5H28V18h2Z" class="clr-i-solid--badged clr-i-solid-path-2--badged" style="display:none"/><path d="M31,8H23v2h8V31H23v2H33V10A2,2,0,0,0,31,8Z" class="clr-i-outline clr-i-outline-path-1"/><path d="M19.88,3H6.12A2.12,2.12,0,0,0,4,5.12V33H22V5.12A2.12,2.12,0,0,0,19.88,3ZM20,31H17V28H9v3H6V5.12A.12.12,0,0,1,6.12,5H19.88a.12.12,0,0,1,.12.12Z" class="clr-i-outline clr-i-outline-path-2"/><rect x="8" y="8" width="2" height="2" class="clr-i-outline--badged clr-i-outline-path-2--badged" style="display:none"/><rect x="12" y="8" width="2" height="2" class="clr-i-outline--badged clr-i-outline-path-3--badged" style="display:none"/><rect x="16" y="8" width="2" height="2" class="clr-i-outline--badged clr-i-outline-path-4--badged" style="display:none"/><rect x="8" y="13" width="2" height="2" class="clr-i-outline--badged clr-i-outline-path-5--badged" style="display:none"/><rect x="12" y="13" width="2" height="2" class="clr-i-outline--badged clr-i-outline-path-6--badged" style="display:none"/><rect x="16" y="13" width="2" height="2" class="clr-i-outline--badged clr-i-outline-path-7--badged" style="display:none"/><rect x="8" y="18" width="2" height="2" class="clr-i-outline--badged clr-i-outline-path-8--badged" style="display:none"/><rect x="12" y="18" width="2" height="2" class="clr-i-outline--badged clr-i-outline-path-9--badged" style="display:none"/><rect x="16" y="18" width="2" height="2" class="clr-i-outline--badged clr-i-outline-path-10--badged" style="display:none"/><rect x="8" y="23" width="2" height="2" class="clr-i-outline--badged clr-i-outline-path-11--badged" style="display:none"/><rect x="12" y="23" width="2" height="2" class="clr-i-outline--badged clr-i-outline-path-12--badged" style="display:none"/><rect x="16" y="23" width="2" height="2" class="clr-i-outline--badged clr-i-outline-path-13--badged" style="display:none"/><rect x="23" y="13" width="2" height="2" class="clr-i-outline--badged clr-i-outline-path-14--badged" style="display:none"/><rect x="27" y="13" width="2" height="2" class="clr-i-outline--badged clr-i-outline-path-15--badged" style="display:none"/><rect x="23" y="18" width="2" height="2" class="clr-i-outline--badged clr-i-outline-path-16--badged" style="display:none"/><rect x="27" y="18" width="2" height="2" class="clr-i-outline--badged clr-i-outline-path-17--badged" style="display:none"/><rect x="23" y="23" width="2" height="2" class="clr-i-outline--badged clr-i-outline-path-18--badged" style="display:none"/><rect x="27" y="23" width="2" height="2" class="clr-i-outline--badged clr-i-outline-path-19--badged" style="display:none"/><rect x="8" y="8" width="2" height="2" class="clr-i-outline--alerted clr-i-outline-path-1--alerted" style="display:none"/><rect x="12" y="8" width="2" height="2" class="clr-i-outline--alerted clr-i-outline-path-2--alerted" style="display:none"/><rect x="16" y="8" width="2" height="2" class="clr-i-outline--alerted clr-i-outline-path-3--alerted" style="display:none"/><rect x="8" y="13" width="2" height="2" class="clr-i-outline--alerted clr-i-outline-path-4--alerted" style="display:none"/><rect x="12" y="13" width="2" height="2" class="clr-i-outline--alerted clr-i-outline-path-5--alerted" style="display:none"/><rect x="16" y="13" width="2" height="2" class="clr-i-outline--alerted clr-i-outline-path-6--alerted" style="display:none"/><rect x="8" y="18" width="2" height="2" class="clr-i-outline--alerted clr-i-outline-path-7--alerted" style="display:none"/><rect x="12" y="18" width="2" height="2" class="clr-i-outline--alerted clr-i-outline-path-8--alerted" style="display:none"/><rect x="16" y="18" width="2" height="2" class="clr-i-outline--alerted clr-i-outline-path-9--alerted" style="display:none"/><rect x="8" y="23" width="2" height="2" class="clr-i-outline--alerted clr-i-outline-path-10--alerted" style="display:none"/><rect x="12" y="23" width="2" height="2" class="clr-i-outline--alerted clr-i-outline-path-11--alerted" style="display:none"/><rect x="16" y="23" width="2" height="2" class="clr-i-outline--alerted clr-i-outline-path-12--alerted" style="display:none"/><rect x="23" y="18" width="2" height="2" class="clr-i-outline--alerted clr-i-outline-path-13--alerted" style="display:none"/><rect x="27" y="18" width="2" height="2" class="clr-i-outline--alerted clr-i-outline-path-14--alerted" style="display:none"/><rect x="23" y="23" width="2" height="2" class="clr-i-outline--alerted clr-i-outline-path-15--alerted" style="display:none"/><rect x="27" y="23" width="2" height="2" class="clr-i-outline--alerted clr-i-outline-path-16--alerted" style="display:none"/><rect x="8" y="8" width="2" height="2" class="clr-i-outline clr-i-outline-path-3"/><rect x="12" y="8" width="2" height="2" class="clr-i-outline clr-i-outline-path-4"/><rect x="16" y="8" width="2" height="2" class="clr-i-outline clr-i-outline-path-5"/><rect x="8" y="13" width="2" height="2" class="clr-i-outline clr-i-outline-path-6"/><rect x="12" y="13" width="2" height="2" class="clr-i-outline clr-i-outline-path-7"/><rect x="16" y="13" width="2" height="2" class="clr-i-outline clr-i-outline-path-8"/><rect x="8" y="18" width="2" height="2" class="clr-i-outline clr-i-outline-path-9"/><rect x="12" y="18" width="2" height="2" class="clr-i-outline clr-i-outline-path-10"/><rect x="16" y="18" width="2" height="2" class="clr-i-outline clr-i-outline-path-11"/><rect x="8" y="23" width="2" height="2" class="clr-i-outline clr-i-outline-path-12"/><rect x="12" y="23" width="2" height="2" class="clr-i-outline clr-i-outline-path-13"/><rect x="16" y="23" width="2" height="2" class="clr-i-outline clr-i-outline-path-14"/><rect x="23" y="13" width="2" height="2" class="clr-i-outline clr-i-outline-path-15"/><rect x="27" y="13" width="2" height="2" class="clr-i-outline clr-i-outline-path-16"/><rect x="23" y="18" width="2" height="2" class="clr-i-outline clr-i-outline-path-17"/><rect x="27" y="18" width="2" height="2" class="clr-i-outline clr-i-outline-path-18"/><rect x="23" y="23" width="2" height="2" class="clr-i-outline clr-i-outline-path-19"/><rect x="27" y="23" width="2" height="2" class="clr-i-outline clr-i-outline-path-20"/><circle cx="30" cy="6" r="5" class="clr-i-outline--badged clr-i-outline-path-21--badged clr-i-badge" style="display:none"/><circle cx="30" cy="6" r="5" class="clr-i-solid--badged clr-i-solid-path-3--badged clr-i-badge" style="display:none"/><polygon points="31 15.4 31 31 23 31 23 33 33 33 33 15.4 31 15.4" class="clr-i-outline--alerted clr-i-outline-path-18--alerted" style="display:none"/></svg>